0 Tesla Model Y - LEGO 1:30
0 Name: model-y.ldr
0 Author: htmls 164
0 !MY META scale 1:30
0 !MY META source https://www.tesla.com/zh_tw/modely

0 !MY TITLE 底盤
1 0 0 -48 0 1 0 0 0 1 0 0 0 1 3027.dat
0 STEP
0 !MY TITLE 底盤
0 !MY META_STEP view below
1 72 120 -40 0 0 0 1 0 1 0 -1 0 0 3001.dat
1 72 120 -40 0 0 0 1 0 1 0 -1 0 0 3668.dat
1 72 -120 -40 0 0 0 1 0 1 0 -1 0 0 3001.dat
1 72 -120 -40 0 0 0 1 0 1 0 -1 0 0 3668.dat
0 STEP
0 !MY TITLE 車身底層
1 15 140 -56 0 1 0 0 0 1 0 0 0 1 3958.dat
1 15 0 -56 0 1 0 0 0 1 0 0 0 1 41539.dat
1 15 -140 -56 0 1 0 0 0 1 0 0 0 1 3958.dat
0 STEP
0 !MY TITLE 車身與輪拱
1 47 190 -64 -60 0 0 1 0 1 0 -1 0 0 3023b.dat
1 47 190 -64 -20 0 0 1 0 1 0 -1 0 0 3023b.dat
1 47 190 -64 20 0 0 1 0 1 0 -1 0 0 3023b.dat
1 47 190 -64 60 0 0 1 0 1 0 -1 0 0 3023b.dat
1 15 170 -64 0 0 0 1 0 1 0 -1 0 0 3460.dat
1 15 140 -64 0 0 0 1 0 1 0 -1 0 0 3795.dat
0 STEP
0 !MY TITLE 車身與輪拱
1 15 100 -80 0 0 0 1 0 1 0 -1 0 0 2456.dat
1 15 0 -80 -70 1 0 0 0 1 0 0 0 1 3008.dat
1 15 0 -80 70 1 0 0 0 1 0 0 0 1 3008.dat
1 15 -90 -80 -50 1 0 0 0 1 0 0 0 1 3005.dat
1 15 -90 -80 50 1 0 0 0 1 0 0 0 1 3005.dat
0 STEP
0 !MY TITLE 車身與輪拱
1 15 -130 -80 -50 1 0 0 0 1 0 0 0 1 3622.dat
1 15 -130 -80 50 1 0 0 0 1 0 0 0 1 3622.dat
1 15 -180 -80 0 0 0 1 0 1 0 -1 0 0 2456.dat
1 15 160 -88 -60 0 0 -1 0 1 0 1 0 0 93606.dat
1 15 160 -88 -20 0 0 -1 0 1 0 1 0 0 93606.dat
1 15 160 -88 20 0 0 -1 0 1 0 1 0 0 93606.dat
0 STEP
0 !MY TITLE 車身與輪拱
1 15 160 -88 60 0 0 -1 0 1 0 1 0 0 93606.dat
1 15 110 -88 -50 1 0 0 0 1 0 0 0 1 3024.dat
1 15 110 -88 0 0 0 1 0 1 0 -1 0 0 3710.dat
1 15 110 -88 50 1 0 0 0 1 0 0 0 1 3024.dat
1 15 70 -88 -70 1 0 0 0 1 0 0 0 1 3024.dat
1 15 70 -88 70 1 0 0 0 1 0 0 0 1 3024.dat
0 STEP
0 !MY TITLE 車身與輪拱
1 15 0 -88 -70 1 0 0 0 1 0 0 0 1 3666.dat
1 15 0 -88 70 1 0 0 0 1 0 0 0 1 3666.dat
1 15 -70 -88 -70 1 0 0 0 1 0 0 0 1 3024.dat
1 15 -70 -88 70 1 0 0 0 1 0 0 0 1 3024.dat
1 15 -40 -88 0 1 0 0 0 1 0 0 0 1 3456.dat
0 STEP
0 !MY TITLE 車身與輪拱
1 36 -190 -88 -60 0 0 1 0 1 0 -1 0 0 3023b.dat
1 36 -190 -88 -20 0 0 1 0 1 0 -1 0 0 3023b.dat
1 36 -190 -88 20 0 0 1 0 1 0 -1 0 0 3023b.dat
1 36 -190 -88 60 0 0 1 0 1 0 -1 0 0 3023b.dat
0 STEP
0 !MY TITLE 車窗與擋風玻璃
1 0 70 -112 -70 0 0 -1 0 1 0 1 0 0 4286.dat
1 0 70 -112 -40 0 0 -1 0 1 0 1 0 0 3298.dat
1 0 70 -112 0 0 0 -1 0 1 0 1 0 0 3298.dat
1 0 70 -112 40 0 0 -1 0 1 0 1 0 0 3298.dat
1 0 70 -112 70 0 0 -1 0 1 0 1 0 0 4286.dat
1 0 40 -112 -20 0 0 1 0 1 0 -1 0 0 2456.dat
0 STEP
0 !MY TITLE 車窗與擋風玻璃
1 0 40 -112 60 1 0 0 0 1 0 0 0 1 3003.dat
1 0 10 -112 -70 1 0 0 0 1 0 0 0 1 3005.dat
1 0 10 -112 70 1 0 0 0 1 0 0 0 1 3005.dat
1 0 -10 -112 -70 1 0 0 0 1 0 0 0 1 3005.dat
1 0 -10 -112 70 1 0 0 0 1 0 0 0 1 3005.dat
1 0 -30 -112 -70 1 0 0 0 1 0 0 0 1 3005.dat
0 STEP
0 !MY TITLE 車窗與擋風玻璃
1 0 -30 -112 70 1 0 0 0 1 0 0 0 1 3005.dat
1 0 -70 -112 -70 1 0 0 0 1 0 0 0 1 3622.dat
1 0 -70 -112 70 1 0 0 0 1 0 0 0 1 3622.dat
1 0 -120 -112 -20 0 0 1 0 1 0 -1 0 0 2456.dat
0 STEP
0 !MY TITLE 車窗與擋風玻璃
1 0 -120 -112 60 1 0 0 0 1 0 0 0 1 3003.dat
1 15 -170 -112 -70 0 0 1 0 1 0 -1 0 0 50950.dat
1 15 -170 -112 -40 0 0 1 0 1 0 -1 0 0 24309.dat
1 15 -170 -112 0 0 0 1 0 1 0 -1 0 0 24309.dat
1 15 -170 -112 40 0 0 1 0 1 0 -1 0 0 24309.dat
1 15 -170 -112 70 0 0 1 0 1 0 -1 0 0 50950.dat
0 STEP
0 !MY TITLE 車頂骨架
1 0 50 -136 -70 0 0 -1 0 1 0 1 0 0 50950.dat
1 0 50 -136 -40 0 0 -1 0 1 0 1 0 0 24309.dat
1 0 50 -136 0 0 0 -1 0 1 0 1 0 0 24309.dat
1 0 50 -136 40 0 0 -1 0 1 0 1 0 0 24309.dat
1 0 50 -136 70 0 0 -1 0 1 0 1 0 0 50950.dat
1 0 -40 -120 -60 1 0 0 0 1 0 0 0 1 3795.dat
0 STEP
0 !MY TITLE 車頂骨架
1 0 -40 -120 60 1 0 0 0 1 0 0 0 1 3795.dat
1 0 -130 -136 -70 0 0 1 0 1 0 -1 0 0 50950.dat
1 0 -130 -136 -40 0 0 1 0 1 0 -1 0 0 24309.dat
1 0 -130 -136 0 0 0 1 0 1 0 -1 0 0 24309.dat
1 0 -130 -136 40 0 0 1 0 1 0 -1 0 0 24309.dat
1 0 -130 -136 70 0 0 1 0 1 0 -1 0 0 50950.dat
0 STEP
0 !MY TITLE 車頂骨架
1 0 0 -120 -70 1 0 0 0 1 0 0 0 1 85984.dat
1 0 0 -120 70 -1 0 0 0 1 0 0 0 -1 85984.dat
1 0 -40 -120 -70 1 0 0 0 1 0 0 0 1 85984.dat
1 0 -40 -120 70 -1 0 0 0 1 0 0 0 -1 85984.dat
1 0 -80 -120 -70 1 0 0 0 1 0 0 0 1 85984.dat
1 0 -40 -128 0 1 0 0 0 1 0 0 0 1 3958.dat
0 STEP
0 !MY TITLE 車頂骨架
1 0 -80 -120 70 -1 0 0 0 1 0 0 0 -1 85984.dat
0 STEP
0 !MY TITLE 全景玻璃車頂
1 0 0 -136 0 0 0 1 0 1 0 -1 0 0 69729.dat
1 0 -40 -136 0 0 0 1 0 1 0 -1 0 0 69729.dat
1 0 -80 -136 0 0 0 1 0 1 0 -1 0 0 69729.dat
0 STEP
0 !MY TITLE 車身與輪拱
0 !MY META_STEP view below
1 15 100 -88 -70 1 0 0 0 1 0 0 0 1 3004.dat
1 15 100 -88 70 1 0 0 0 1 0 0 0 1 3004.dat
1 15 -120 -88 -70 1 0 0 0 1 0 0 0 1 3010.dat
1 15 -120 -88 70 1 0 0 0 1 0 0 0 1 3010.dat
1 15 -170 -88 -70 1 0 0 0 1 0 0 0 1 3024.dat
1 15 -170 -88 70 1 0 0 0 1 0 0 0 1 3024.dat
0 STEP
0 !MY TITLE 車身與輪拱
0 !MY META_STEP view below
1 15 -170 -80 -70 1 0 0 0 1 0 0 0 1 3024.dat
1 15 -170 -80 70 1 0 0 0 1 0 0 0 1 3024.dat
1 15 -190 -80 -70 1 0 0 0 1 0 0 0 1 3024.dat
1 15 -190 -80 70 1 0 0 0 1 0 0 0 1 3024.dat
0 STEP
0 !MY TITLE 車身底層
0 !MY META_STEP view below
1 15 -180 -72 -70 1 0 0 0 1 0 0 0 1 3004.dat
1 15 -180 -72 70 1 0 0 0 1 0 0 0 1 3004.dat
1 15 180 -56 -70 1 0 0 0 1 0 0 0 1 3023b.dat
1 15 180 -56 70 1 0 0 0 1 0 0 0 1 3023b.dat
0 STEP
0 !MY TITLE 保險桿與側裙
0 !MY META_STEP view below
1 15 180 -48 -20 0 0 1 0 1 0 -1 0 0 2456.dat
1 15 180 -48 60 1 0 0 0 1 0 0 0 1 3003.dat
1 15 0 -48 -70 1 0 0 0 1 0 0 0 1 3008.dat
1 15 0 -48 70 1 0 0 0 1 0 0 0 1 3008.dat
1 15 -180 -48 -20 0 0 1 0 1 0 -1 0 0 2456.dat
1 15 -180 -48 60 1 0 0 0 1 0 0 0 1 3003.dat
0 STEP
0 !MY TITLE 保險桿與側裙
0 !MY META_STEP view below
1 0 180 -24 0 0 0 1 0 1 0 -1 0 0 3034.dat
1 0 0 -24 -70 1 0 0 0 1 0 0 0 1 3460.dat
1 0 0 -24 70 1 0 0 0 1 0 0 0 1 3460.dat
1 0 -180 -24 0 0 0 1 0 1 0 -1 0 0 3034.dat
0 STEP
0 !MY TITLE 輪子
1 19 120 -30 -61 0 0 1 0 1 0 -1 0 0 3749.dat
1 72 120 -30 -78.5 1 0 0 0 1 0 0 0 1 72206p01.dat
1 19 120 -30 61 0 0 -1 0 1 0 1 0 0 3749.dat
1 72 120 -30 78.5 -1 0 0 0 1 0 0 0 -1 72206p01.dat
1 19 -120 -30 -61 0 0 1 0 1 0 -1 0 0 3749.dat
1 72 -120 -30 -78.5 1 0 0 0 1 0 0 0 1 72206p01.dat
0 STEP
0 !MY TITLE 輪子
1 19 -120 -30 61 0 0 -1 0 1 0 1 0 0 3749.dat
1 72 -120 -30 78.5 -1 0 0 0 1 0 0 0 -1 72206p01.dat
0 STEP
