{"asset":{"version":"2.0","generator":"Tideborn original procedural villager"},"scene":0,"scenes":[{"nodes":[0]}],"nodes":[{"name":"Villager","children":[1,8]},{"name":"hips","translation":[0,1.1,0],"children":[2,6,7]},{"name":"spine","translation":[0,0.5499999999999998,0],"children":[3,4,5]},{"name":"head","translation":[0,0.7000000000000002,0],"children":[]},{"name":"armL","translation":[-0.52,0.30000000000000004,0],"children":[]},{"name":"armR","translation":[0.52,0.30000000000000004,0],"children":[]},{"name":"legL","translation":[-0.24,-0.050000000000000044,0],"children":[]},{"name":"legR","translation":[0.24,-0.050000000000000044,0],"children":[]},{"name":"Body","mesh":0,"skin":0}],"meshes":[{"primitives":[{"attributes":{"POSITION":0,"NORMAL":1,"JOINTS_0":2,"WEIGHTS_0":3},"indices":4,"material":0},{"attributes":{"POSITION":5,"NORMAL":6,"JOINTS_0":7,"WEIGHTS_0":8},"indices":9,"material":1},{"attributes":{"POSITION":10,"NORMAL":11,"JOINTS_0":12,"WEIGHTS_0":13},"indices":14,"material":1},{"attributes":{"POSITION":15,"NORMAL":16,"JOINTS_0":17,"WEIGHTS_0":18},"indices":19,"material":1},{"attributes":{"POSITION":20,"NORMAL":21,"JOINTS_0":22,"WEIGHTS_0":23},"indices":24,"material":0},{"attributes":{"POSITION":25,"NORMAL":26,"JOINTS_0":27,"WEIGHTS_0":28},"indices":29,"material":0},{"attributes":{"POSITION":30,"NORMAL":31,"JOINTS_0":32,"WEIGHTS_0":33},"indices":34,"material":0},{"attributes":{"POSITION":35,"NORMAL":36,"JOINTS_0":37,"WEIGHTS_0":38},"indices":39,"material":0},{"attributes":{"POSITION":40,"NORMAL":41,"JOINTS_0":42,"WEIGHTS_0":43},"indices":44,"material":2},{"attributes":{"POSITION":45,"NORMAL":46,"JOINTS_0":47,"WEIGHTS_0":48},"indices":49,"material":0},{"attributes":{"POSITION":50,"NORMAL":51,"JOINTS_0":52,"WEIGHTS_0":53},"indices":54,"material":0},{"attributes":{"POSITION":55,"NORMAL":56,"JOINTS_0":57,"WEIGHTS_0":58},"indices":59,"material":0},{"attributes":{"POSITION":60,"NORMAL":61,"JOINTS_0":62,"WEIGHTS_0":63},"indices":64,"material":0},{"attributes":{"POSITION":65,"NORMAL":66,"JOINTS_0":67,"WEIGHTS_0":68},"indices":69,"material":0},{"attributes":{"POSITION":70,"NORMAL":71,"JOINTS_0":72,"WEIGHTS_0":73},"indices":74,"material":2},{"attributes":{"POSITION":75,"NORMAL":76,"JOINTS_0":77,"WEIGHTS_0":78},"indices":79,"material":0},{"attributes":{"POSITION":80,"NORMAL":81,"JOINTS_0":82,"WEIGHTS_0":83},"indices":84,"material":2}]}],"materials":[{"name":"ivory","pbrMetallicRoughness":{"baseColorFactor":[0.91,0.85,0.67,1],"metallicFactor":0,"roughnessFactor":0.9}},{"name":"eyes","pbrMetallicRoughness":{"baseColorFactor":[0.08,0.14,0.12,1],"metallicFactor":0,"roughnessFactor":1}},{"name":"cloth","pbrMetallicRoughness":{"baseColorFactor":[0.25,0.47,0.4,1],"metallicFactor":0,"roughnessFactor":1}}],"skins":[{"inverseBindMatrices":85,"joints":[1,2,3,4,5,6,7],"skeleton":1}],"animations":[{"name":"idle","samplers":[{"input":86,"output":87,"interpolation":"LINEAR"},{"input":86,"output":88,"interpolation":"LINEAR"}],"channels":[{"sampler":0,"target":{"node":2,"path":"rotation"}},{"sampler":1,"target":{"node":3,"path":"rotation"}}]},{"name":"walk","samplers":[{"input":89,"output":90,"interpolation":"LINEAR"},{"input":89,"output":91,"interpolation":"LINEAR"},{"input":89,"output":92,"interpolation":"LINEAR"},{"input":89,"output":93,"interpolation":"LINEAR"}],"channels":[{"sampler":0,"target":{"node":4,"path":"rotation"}},{"sampler":1,"target":{"node":5,"path":"rotation"}},{"sampler":2,"target":{"node":6,"path":"rotation"}},{"sampler":3,"target":{"node":7,"path":"rotation"}}]},{"name":"work","samplers":[{"input":94,"output":95,"interpolation":"LINEAR"},{"input":94,"output":96,"interpolation":"LINEAR"},{"input":94,"output":97,"interpolation":"LINEAR"}],"channels":[{"sampler":0,"target":{"node":4,"path":"rotation"}},{"sampler":1,"target":{"node":5,"path":"rotation"}},{"sampler":2,"target":{"node":2,"path":"rotation"}}]}],"bufferViews":[{"buffer":0,"byteOffset":0,"byteLength":288},{"buffer":0,"byteOffset":288,"byteLength":288},{"buffer":0,"byteOffset":576,"byteLength":192},{"buffer":0,"byteOffset":768,"byteLength":384},{"buffer":0,"byteOffset":1152,"byteLength":72},{"buffer":0,"byteOffset":1224,"byteLength":288},{"buffer":0,"byteOffset":1512,"byteLength":288},{"buffer":0,"byteOffset":1800,"byteLength":192},{"buffer":0,"byteOffset":1992,"byteLength":384},{"buffer":0,"byteOffset":2376,"byteLength":72},{"buffer":0,"byteOffset":2448,"byteLength":288},{"buffer":0,"byteOffset":2736,"byteLength":288},{"buffer":0,"byteOffset":3024,"byteLength":192},{"buffer":0,"byteOffset":3216,"byteLength":384},{"buffer":0,"byteOffset":3600,"byteLength":72},{"buffer":0,"byteOffset":3672,"byteLength":288},{"buffer":0,"byteOffset":3960,"byteLength":288},{"buffer":0,"byteOffset":4248,"byteLength":192},{"buffer":0,"byteOffset":4440,"byteLength":384},{"buffer":0,"byteOffset":4824,"byteLength":72},{"buffer":0,"byteOffset":4896,"byteLength":288},{"buffer":0,"byteOffset":5184,"byteLength":288},{"buffer":0,"byteOffset":5472,"byteLength":192},{"buffer":0,"byteOffset":5664,"byteLength":384},{"buffer":0,"byteOffset":6048,"byteLength":72},{"buffer":0,"byteOffset":6120,"byteLength":288},{"buffer":0,"byteOffset":6408,"byteLength":288},{"buffer":0,"byteOffset":6696,"byteLength":192},{"buffer":0,"byteOffset":6888,"byteLength":384},{"buffer":0,"byteOffset":7272,"byteLength":72},{"buffer":0,"byteOffset":7344,"byteLength":288},{"buffer":0,"byteOffset":7632,"byteLength":288},{"buffer":0,"byteOffset":7920,"byteLength":192},{"buffer":0,"byteOffset":8112,"byteLength":384},{"buffer":0,"byteOffset":8496,"byteLength":72},{"buffer":0,"byteOffset":8568,"byteLength":288},{"buffer":0,"byteOffset":8856,"byteLength":288},{"buffer":0,"byteOffset":9144,"byteLength":192},{"buffer":0,"byteOffset":9336,"byteLength":384},{"buffer":0,"byteOffset":9720,"byteLength":72},{"buffer":0,"byteOffset":9792,"byteLength":288},{"buffer":0,"byteOffset":10080,"byteLength":288},{"buffer":0,"byteOffset":10368,"byteLength":192},{"buffer":0,"byteOffset":10560,"byteLength":384},{"buffer":0,"byteOffset":10944,"byteLength":72},{"buffer":0,"byteOffset":11016,"byteLength":288},{"buffer":0,"byteOffset":11304,"byteLength":288},{"buffer":0,"byteOffset":11592,"byteLength":192},{"buffer":0,"byteOffset":11784,"byteLength":384},{"buffer":0,"byteOffset":12168,"byteLength":72},{"buffer":0,"byteOffset":12240,"byteLength":288},{"buffer":0,"byteOffset":12528,"byteLength":288},{"buffer":0,"byteOffset":12816,"byteLength":192},{"buffer":0,"byteOffset":13008,"byteLength":384},{"buffer":0,"byteOffset":13392,"byteLength":72},{"buffer":0,"byteOffset":13464,"byteLength":288},{"buffer":0,"byteOffset":13752,"byteLength":288},{"buffer":0,"byteOffset":14040,"byteLength":192},{"buffer":0,"byteOffset":14232,"byteLength":384},{"buffer":0,"byteOffset":14616,"byteLength":72},{"buffer":0,"byteOffset":14688,"byteLength":288},{"buffer":0,"byteOffset":14976,"byteLength":288},{"buffer":0,"byteOffset":15264,"byteLength":192},{"buffer":0,"byteOffset":15456,"byteLength":384},{"buffer":0,"byteOffset":15840,"byteLength":72},{"buffer":0,"byteOffset":15912,"byteLength":288},{"buffer":0,"byteOffset":16200,"byteLength":288},{"buffer":0,"byteOffset":16488,"byteLength":192},{"buffer":0,"byteOffset":16680,"byteLength":384},{"buffer":0,"byteOffset":17064,"byteLength":72},{"buffer":0,"byteOffset":17136,"byteLength":288},{"buffer":0,"byteOffset":17424,"byteLength":288},{"buffer":0,"byteOffset":17712,"byteLength":192},{"buffer":0,"byteOffset":17904,"byteLength":384},{"buffer":0,"byteOffset":18288,"byteLength":72},{"buffer":0,"byteOffset":18360,"byteLength":288},{"buffer":0,"byteOffset":18648,"byteLength":288},{"buffer":0,"byteOffset":18936,"byteLength":192},{"buffer":0,"byteOffset":19128,"byteLength":384},{"buffer":0,"byteOffset":19512,"byteLength":72},{"buffer":0,"byteOffset":19584,"byteLength":288},{"buffer":0,"byteOffset":19872,"byteLength":288},{"buffer":0,"byteOffset":20160,"byteLength":192},{"buffer":0,"byteOffset":20352,"byteLength":384},{"buffer":0,"byteOffset":20736,"byteLength":72},{"buffer":0,"byteOffset":20808,"byteLength":448},{"buffer":0,"byteOffset":21256,"byteLength":20},{"buffer":0,"byteOffset":21276,"byteLength":80},{"buffer":0,"byteOffset":21356,"byteLength":80},{"buffer":0,"byteOffset":21436,"byteLength":20},{"buffer":0,"byteOffset":21456,"byteLength":80},{"buffer":0,"byteOffset":21536,"byteLength":80},{"buffer":0,"byteOffset":21616,"byteLength":80},{"buffer":0,"byteOffset":21696,"byteLength":80},{"buffer":0,"byteOffset":21776,"byteLength":20},{"buffer":0,"byteOffset":21796,"byteLength":80},{"buffer":0,"byteOffset":21876,"byteLength":80},{"buffer":0,"byteOffset":21956,"byteLength":80}],"accessors":[{"bufferView":0,"componentType":5126,"count":24,"type":"VEC3","min":[-0.425,2.06,-0.325],"max":[0.425,2.8400000000000003,0.325]},{"bufferView":1,"componentType":5126,"count":24,"type":"VEC3","min":[-1,-1,-1],"max":[1,1,1]},{"bufferView":2,"componentType":5123,"count":24,"type":"VEC4"},{"bufferView":3,"componentType":5126,"count":24,"type":"VEC4"},{"bufferView":4,"componentType":5123,"count":36,"type":"SCALAR","min":[0],"max":[23]},{"bufferView":5,"componentType":5126,"count":24,"type":"VEC3","min":[-0.31,2.3899999999999997,0.3195],"max":[-0.10999999999999999,2.63,0.34450000000000003]},{"bufferView":6,"componentType":5126,"count":24,"type":"VEC3","min":[-1,-1,-1],"max":[1,1,1]},{"bufferView":7,"componentType":5123,"count":24,"type":"VEC4"},{"bufferView":8,"componentType":5126,"count":24,"type":"VEC4"},{"bufferView":9,"componentType":5123,"count":36,"type":"SCALAR","min":[0],"max":[23]},{"bufferView":10,"componentType":5126,"count":24,"type":"VEC3","min":[0.10999999999999999,2.3899999999999997,0.3195],"max":[0.31,2.63,0.34450000000000003]},{"bufferView":11,"componentType":5126,"count":24,"type":"VEC3","min":[-1,-1,-1],"max":[1,1,1]},{"bufferView":12,"componentType":5123,"count":24,"type":"VEC4"},{"bufferView":13,"componentType":5126,"count":24,"type":"VEC4"},{"bufferView":14,"componentType":5123,"count":36,"type":"SCALAR","min":[0],"max":[23]},{"bufferView":15,"componentType":5126,"count":24,"type":"VEC3","min":[-0.19,2.17,0.325],"max":[0.19,2.25,0.35500000000000004]},{"bufferView":16,"componentType":5126,"count":24,"type":"VEC3","min":[-1,-1,-1],"max":[1,1,1]},{"bufferView":17,"componentType":5123,"count":24,"type":"VEC4"},{"bufferView":18,"componentType":5126,"count":24,"type":"VEC4"},{"bufferView":19,"componentType":5123,"count":36,"type":"SCALAR","min":[0],"max":[23]},{"bufferView":20,"componentType":5126,"count":24,"type":"VEC3","min":[-0.09,1.23,-0.11],"max":[0.09,2.13,0.11]},{"bufferView":21,"componentType":5126,"count":24,"type":"VEC3","min":[-1,-1,-1],"max":[1,1,1]},{"bufferView":22,"componentType":5123,"count":24,"type":"VEC4"},{"bufferView":23,"componentType":5126,"count":24,"type":"VEC4"},{"bufferView":24,"componentType":5123,"count":36,"type":"SCALAR","min":[0],"max":[23]},{"bufferView":25,"componentType":5126,"count":24,"type":"VEC3","min":[-0.36,1.5,-0.175],"max":[0.36,1.6,0.175]},{"bufferView":26,"componentType":5126,"count":24,"type":"VEC3","min":[-1,-1,-1],"max":[1,1,1]},{"bufferView":27,"componentType":5123,"count":24,"type":"VEC4"},{"bufferView":28,"componentType":5126,"count":24,"type":"VEC4"},{"bufferView":29,"componentType":5123,"count":36,"type":"SCALAR","min":[0],"max":[23]},{"bufferView":30,"componentType":5126,"count":24,"type":"VEC3","min":[-0.36,1.7,-0.175],"max":[0.36,1.8,0.175]},{"bufferView":31,"componentType":5126,"count":24,"type":"VEC3","min":[-1,-1,-1],"max":[1,1,1]},{"bufferView":32,"componentType":5123,"count":24,"type":"VEC4"},{"bufferView":33,"componentType":5126,"count":24,"type":"VEC4"},{"bufferView":34,"componentType":5123,"count":36,"type":"SCALAR","min":[0],"max":[23]},{"bufferView":35,"componentType":5126,"count":24,"type":"VEC3","min":[-0.36,1.9,-0.175],"max":[0.36,2.0,0.175]},{"bufferView":36,"componentType":5126,"count":24,"type":"VEC3","min":[-1,-1,-1],"max":[1,1,1]},{"bufferView":37,"componentType":5123,"count":24,"type":"VEC4"},{"bufferView":38,"componentType":5126,"count":24,"type":"VEC4"},{"bufferView":39,"componentType":5123,"count":36,"type":"SCALAR","min":[0],"max":[23]},{"bufferView":40,"componentType":5126,"count":24,"type":"VEC3","min":[-0.365,0.9549999999999998,-0.22],"max":[0.365,1.305,0.22]},{"bufferView":41,"componentType":5126,"count":24,"type":"VEC3","min":[-1,-1,-1],"max":[1,1,1]},{"bufferView":42,"componentType":5123,"count":24,"type":"VEC4"},{"bufferView":43,"componentType":5126,"count":24,"type":"VEC4"},{"bufferView":44,"componentType":5123,"count":36,"type":"SCALAR","min":[0],"max":[23]},{"bufferView":45,"componentType":5126,"count":24,"type":"VEC3","min":[-0.625,1.075,-0.09],"max":[-0.455,1.925,0.09]},{"bufferView":46,"componentType":5126,"count":24,"type":"VEC3","min":[-1,-1,-1],"max":[1,1,1]},{"bufferView":47,"componentType":5123,"count":24,"type":"VEC4"},{"bufferView":48,"componentType":5126,"count":24,"type":"VEC4"},{"bufferView":49,"componentType":5123,"count":36,"type":"SCALAR","min":[0],"max":[23]},{"bufferView":50,"componentType":5126,"count":24,"type":"VEC3","min":[-0.655,0.9650000000000001,-0.09999999999999999],"max":[-0.42500000000000004,1.155,0.13999999999999999]},{"bufferView":51,"componentType":5126,"count":24,"type":"VEC3","min":[-1,-1,-1],"max":[1,1,1]},{"bufferView":52,"componentType":5123,"count":24,"type":"VEC4"},{"bufferView":53,"componentType":5126,"count":24,"type":"VEC4"},{"bufferView":54,"componentType":5123,"count":36,"type":"SCALAR","min":[0],"max":[23]},{"bufferView":55,"componentType":5126,"count":24,"type":"VEC3","min":[0.455,1.075,-0.09],"max":[0.625,1.925,0.09]},{"bufferView":56,"componentType":5126,"count":24,"type":"VEC3","min":[-1,-1,-1],"max":[1,1,1]},{"bufferView":57,"componentType":5123,"count":24,"type":"VEC4"},{"bufferView":58,"componentType":5126,"count":24,"type":"VEC4"},{"bufferView":59,"componentType":5123,"count":36,"type":"SCALAR","min":[0],"max":[23]},{"bufferView":60,"componentType":5126,"count":24,"type":"VEC3","min":[0.42500000000000004,0.9650000000000001,-0.09999999999999999],"max":[0.655,1.155,0.13999999999999999]},{"bufferView":61,"componentType":5126,"count":24,"type":"VEC3","min":[-1,-1,-1],"max":[1,1,1]},{"bufferView":62,"componentType":5123,"count":24,"type":"VEC4"},{"bufferView":63,"componentType":5126,"count":24,"type":"VEC4"},{"bufferView":64,"componentType":5123,"count":36,"type":"SCALAR","min":[0],"max":[23]},{"bufferView":65,"componentType":5126,"count":24,"type":"VEC3","min":[-0.33499999999999996,0.185,-0.1],"max":[-0.145,1.055,0.1]},{"bufferView":66,"componentType":5126,"count":24,"type":"VEC3","min":[-1,-1,-1],"max":[1,1,1]},{"bufferView":67,"componentType":5123,"count":24,"type":"VEC4"},{"bufferView":68,"componentType":5126,"count":24,"type":"VEC4"},{"bufferView":69,"componentType":5123,"count":36,"type":"SCALAR","min":[0],"max":[23]},{"bufferView":70,"componentType":5126,"count":24,"type":"VEC3","min":[-0.375,0.010000000000000009,-0.12],"max":[-0.10499999999999998,0.25,0.32]},{"bufferView":71,"componentType":5126,"count":24,"type":"VEC3","min":[-1,-1,-1],"max":[1,1,1]},{"bufferView":72,"componentType":5123,"count":24,"type":"VEC4"},{"bufferView":73,"componentType":5126,"count":24,"type":"VEC4"},{"bufferView":74,"componentType":5123,"count":36,"type":"SCALAR","min":[0],"max":[23]},{"bufferView":75,"componentType":5126,"count":24,"type":"VEC3","min":[0.145,0.185,-0.1],"max":[0.33499999999999996,1.055,0.1]},{"bufferView":76,"componentType":5126,"count":24,"type":"VEC3","min":[-1,-1,-1],"max":[1,1,1]},{"bufferView":77,"componentType":5123,"count":24,"type":"VEC4"},{"bufferView":78,"componentType":5126,"count":24,"type":"VEC4"},{"bufferView":79,"componentType":5123,"count":36,"type":"SCALAR","min":[0],"max":[23]},{"bufferView":80,"componentType":5126,"count":24,"type":"VEC3","min":[0.10499999999999998,0.010000000000000009,-0.12],"max":[0.375,0.25,0.32]},{"bufferView":81,"componentType":5126,"count":24,"type":"VEC3","min":[-1,-1,-1],"max":[1,1,1]},{"bufferView":82,"componentType":5123,"count":24,"type":"VEC4"},{"bufferView":83,"componentType":5126,"count":24,"type":"VEC4"},{"bufferView":84,"componentType":5123,"count":36,"type":"SCALAR","min":[0],"max":[23]},{"bufferView":85,"componentType":5126,"count":7,"type":"MAT4"},{"bufferView":86,"componentType":5126,"count":5,"type":"SCALAR","min":[0.0],"max":[2.0]},{"bufferView":87,"componentType":5126,"count":5,"type":"VEC4"},{"bufferView":88,"componentType":5126,"count":5,"type":"VEC4"},{"bufferView":89,"componentType":5126,"count":5,"type":"SCALAR","min":[0.0],"max":[0.8]},{"bufferView":90,"componentType":5126,"count":5,"type":"VEC4"},{"bufferView":91,"componentType":5126,"count":5,"type":"VEC4"},{"bufferView":92,"componentType":5126,"count":5,"type":"VEC4"},{"bufferView":93,"componentType":5126,"count":5,"type":"VEC4"},{"bufferView":94,"componentType":5126,"count":5,"type":"SCALAR","min":[0.0],"max":[1.1]},{"bufferView":95,"componentType":5126,"count":5,"type":"VEC4"},{"bufferView":96,"componentType":5126,"count":5,"type":"VEC4"},{"bufferView":97,"componentType":5126,"count":5,"type":"VEC4"}],"buffers":[{"byteLength":22036,"uri":"data:application/octet-stream;base64,"}]}