<svg xmlns="http://www.w3.org/2000/svg" viewBox="0 0 640 400" role="img" aria-label="ARC brokerage homepage preview">
<defs>
  <linearGradient id="sky" x2="1" y2="1"><stop stop-color="#091014"/><stop offset=".6" stop-color="#10242a"/><stop offset="1" stop-color="#0d161a"/></linearGradient>
  <linearGradient id="glass"><stop stop-color="#426c68" stop-opacity=".4"/><stop offset=".35" stop-color="#b9eee0" stop-opacity=".52"/><stop offset=".42" stop-color="#1e4a54" stop-opacity=".8"/><stop offset=".8" stop-color="#234551" stop-opacity=".9"/><stop offset="1" stop-color="#bcebd4" stop-opacity=".55"/></linearGradient>
  <linearGradient id="shade"><stop stop-color="#070e11" stop-opacity=".97"/><stop offset=".53" stop-color="#071014" stop-opacity=".7"/><stop offset="1" stop-color="#071014" stop-opacity=".07"/></linearGradient>
  <pattern id="windows" width="15" height="19" patternUnits="userSpaceOnUse"><path d="M3 11h1M11 11h1" stroke="#b9e7c5" opacity=".45"/></pattern>
  <radialGradient id="glow"><stop stop-color="#5eaa85" stop-opacity=".38"/><stop offset="1" stop-color="#5eaa85" stop-opacity="0"/></radialGradient>
</defs>
<rect width="640" height="400" fill="url(#sky)"/><ellipse cx="480" cy="230" rx="220" ry="200" fill="url(#glow)"/>
<g fill="#254049" opacity=".55"><path d="M210 220h29v-54h21v54h25v-93h35v93h37v-50h26v50h20v-111h46v111h22v-78h30v78h22v-67h37v67h25v180H210z"/></g>
<g fill="url(#glass)" stroke="#bad8ce" stroke-opacity=".38">
<path d="M365 154l46-6 11 6v190h-57z"/><path d="M413 106l49-9 12 9v238h-61z"/><path d="M464 44l55-7 13 8v299h-68z"/><path d="M519 139l43-5 13 5v205h-56z"/>
</g>
<g fill="url(#windows)" opacity=".8"><path d="M365 154l46-6 11 6v190h-57z"/><path d="M413 106l49-9 12 9v238h-61z"/><path d="M464 44l55-7 13 8v299h-68z"/><path d="M519 139l43-5 13 5v205h-56z"/></g>
<rect width="640" height="400" fill="url(#shade)"/>
<path d="M0 40h640" stroke="#d9f3df" stroke-opacity=".2"/>
<text x="30" y="28" fill="#f3f7f0" font-family="Arial,sans-serif" font-weight="800" font-size="17" letter-spacing="-1">AR<tspan fill="#d7ff8c">C</tspan>.</text>
<g fill="#e3eee5" font-family="Arial,sans-serif" font-size="8"><text x="245" y="26">Trade</text><text x="290" y="26">Investing</text><text x="348" y="26">Accounts</text><text x="404" y="26">Markets</text><text x="457" y="26">Company</text></g>
<rect x="549" y="11" width="73" height="23" rx="1.5" fill="#d7ff8c"/><text x="561" y="26" fill="#132016" font-family="Arial,sans-serif" font-size="8" font-weight="bold">Get Started ↗</text>
<text x="27" y="68" fill="#f3f7ef" font-family="Arial,sans-serif" font-size="10" font-weight="bold" letter-spacing="-.4">See further. Move smarter.</text>
<g fill="#a9bfba" font-family="Arial,sans-serif" font-size="6.5"><text x="27" y="83">Bring the markets into focus with one calm place to explore</text><text x="27" y="93">ideas, follow what matters, and find your next move.</text></g>
<g font-family="Arial,sans-serif" font-size="6.5" font-weight="bold"><text x="276" y="66" fill="#9fb1ad">META</text><text x="300" y="66" fill="#eaf4ec">$624.38</text><text x="379" y="66" fill="#abf5ac" text-anchor="end">+0.82%</text><text x="276" y="77" fill="#9fb1ad">NVDA</text><text x="300" y="77" fill="#eaf4ec">$143.61</text><text x="379" y="77" fill="#abf5ac" text-anchor="end">+1.24%</text><text x="276" y="88" fill="#9fb1ad">AMZN</text><text x="300" y="88" fill="#eaf4ec">$212.45</text><text x="379" y="88" fill="#ff9897" text-anchor="end">−0.31%</text></g>
<text x="276" y="101" fill="#83958f" font-family="Arial,sans-serif" font-size="5">Simulated data</text>
<rect x="393" y="60" width="87" height="21" rx="1.5" fill="#d7ff8c"/><text x="402" y="73.5" fill="#10190f" font-family="Arial,sans-serif" font-size="6.5" font-weight="bold">Open the trade desk ↗</text>
<g fill="#83958f" font-family="Arial,sans-serif" font-size="5.5"><text x="511" y="65">Perspective changes everything.</text><text x="511" y="73">ARC / 2026</text></g>
<text x="25" y="277" fill="#f2f6ef" font-family="Arial,sans-serif" font-size="54" font-weight="800" letter-spacing="-3.2">Move with</text><text x="25" y="324" fill="#d7ff8c" font-family="Arial,sans-serif" font-size="54" font-weight="800" letter-spacing="-3.2">the market.</text>
<rect y="349" width="640" height="51" fill="#080f12" opacity=".85"/><path d="M0 349h640" stroke="#d9f3df" stroke-opacity=".2"/>
<g font-family="Arial,sans-serif" fill="#f1f7ef" font-weight="bold"><text x="27" y="376" font-size="15">01</text><text x="159" y="376" font-size="15">02</text><text x="276" y="376" font-size="15">03</text><text x="393" y="376" font-size="15">04</text><text x="511" y="376" font-size="15">05</text></g><g font-family="Arial,sans-serif" fill="#a7beb4" font-size="5" letter-spacing=".6"><text x="27" y="387">TRADE</text><text x="159" y="387">INVEST</text><text x="276" y="387">ACCOUNTS</text><text x="393" y="387">MARKETS</text><text x="511" y="387">ABOUT</text></g><path d="M144 358v32M261 358v32M378 358v32M496 358v32" stroke="#b1d2c1" stroke-opacity=".22"/>
</svg>
