<svg xmlns="http://www.w3.org/2000/svg" viewBox="0 0 640 400" role="img" aria-label="末班車廢棄月台第一人稱射擊遊戲預覽">
<defs><linearGradient id="wall" x2="0" y2="1"><stop stop-color="#49534e"/><stop offset="1" stop-color="#1c2724"/></linearGradient><linearGradient id="floor" x2="0" y2="1"><stop stop-color="#303e37"/><stop offset="1" stop-color="#101916"/></linearGradient><radialGradient id="light"><stop stop-color="#d1e8d7" stop-opacity=".48"/><stop offset="1" stop-color="#d1e8d7" stop-opacity="0"/></radialGradient><radialGradient id="shade"><stop offset=".38" stop-opacity="0"/><stop offset="1" stop-opacity=".9"/></radialGradient></defs>
<rect width="640" height="400" fill="#0a100e"/><path d="M0 0h640L390 180H235Z" fill="#27352f"/><path d="M0 0h136l99 180L0 256Z" fill="url(#wall)"/><path d="M640 0H504L390 180l250 78Z" fill="#202a26"/><path d="M0 400V256l235-76h155l250 78v142Z" fill="url(#floor)"/><path d="M0 253 235 179h155l250 74" fill="none" stroke="#566457" stroke-width="3"/><path d="M320 181 472 400h30L341 181" fill="#c4a743"/><path d="M418 260 520 400h86L460 260" fill="#090f0f"/><path d="M450 270 537 400M467 274 572 400" stroke="#606d67" stroke-width="4"/><path d="M430 310h80m-45 45h82" stroke="#5b4b35" stroke-width="7"/>
<g stroke="#68756c" stroke-width="2" opacity=".45"><path d="M0 55 190 98M0 110l205 40M0 165l222 28M30 0l79 220M88 0l105 203"/></g><path d="M205 95h100v39H205Z" fill="#cfc7a4"/><text x="213" y="122" fill="#1d3029" font-size="21" font-family="sans-serif" font-weight="700">終 點 站</text><path d="M377 32h24l-8 211h-18Z" fill="#555d53"/><path d="M379 34h21" stroke="#9ba497" stroke-width="5"/><path d="M480 0h22l-64 280h-23Z" fill="#424c45"/><path d="M460 0h88v12h-88Z" fill="#bec8b7"/><ellipse cx="495" cy="70" rx="130" ry="120" fill="url(#light)"/>
<path d="M260 169q12-20 25 0v23h-25Z" fill="#394941"/><circle cx="273" cy="159" r="11" fill="#7e826c"/><path d="M268 158h3m6 0h3" stroke="#eab46b" stroke-width="2"/><path d="M304 170q8-12 17 0v19h-17Z" fill="#36423a"/><circle cx="312" cy="164" r="7" fill="#737968"/>
<path d="M316 400v-95l56-47 32 2 19 140Z" fill="#2a332d"/><path d="M352 275h31l-5 125h-40Z" fill="#626d64"/><path d="M351 266h40v36h-40Z" fill="#27322e"/><path d="M359 257h21v15h-21Z" fill="#89968a"/><path d="M371 252h7v15h-7Z" fill="#d0a65f"/><path d="M377 246q13-17 27-9l-16 24Z" fill="#edc279" opacity=".85"/>
<path d="M314 187v8m0 10v8m-16-9h8m16 0h8" stroke="#f2e3bf" stroke-width="2"/><rect width="640" height="400" fill="url(#shade)"/><text x="34" y="72" fill="#eee9d7" font-size="55" font-family="Arial,sans-serif" font-weight="900" letter-spacing="-5">末班車</text><text x="37" y="100" fill="#d4bf6e" font-size="15" font-family="monospace" letter-spacing="6">LAST TRAIN</text><text x="38" y="360" fill="#b3c4ae" font-size="12" font-family="monospace" letter-spacing="2">TERMINUS 04 / SURVIVE THE PLATFORM</text>
</svg>
