<svg xmlns="http://www.w3.org/2000/svg" width="640" height="400" viewBox="0 0 640 400">
<defs><linearGradient id="bg" x2="0" y2="1"><stop stop-color="#0e2831"/><stop offset="1" stop-color="#193e43"/></linearGradient><linearGradient id="flame" x2="0" y2="1"><stop stop-color="#ffe4a1"/><stop offset="1" stop-color="#e46c45"/></linearGradient></defs>
<rect width="640" height="400" fill="url(#bg)"/><path d="M0 265 640 265M0 300 640 300M0 337 640 337M0 374 640 374M40 250 40 400M110 250 110 400M180 250 180 400M250 250 250 400M320 250 320 400M390 250 390 400M460 250 460 400M530 250 530 400M600 250 600 400" stroke="#356167" stroke-width="1" opacity=".6"/>
<path d="M0 296H640" stroke="#d3bd92" stroke-width="10"/><path d="M0 315H640" stroke="#d3bd92" stroke-width="10"/><path d="M20 305H620" stroke="#17353c" stroke-width="4" stroke-dasharray="20 20"/>
<g fill="#819f9c" stroke="#a6c2b3" stroke-width="3"><path d="M46 190h113v90H46z"/><path d="M181 163h126v117H181z"/><path d="M334 126h129v154H334z"/></g><path d="M54 213h96v42H54zM190 189h108v68H190zM345 151h108v104H345z" fill="#183943"/><path d="M40 184h126v10H40zM175 157h139v11H175zM328 120h142v11H328z" fill="#d78d65"/>
<g stroke="#efaa79" stroke-width="5" fill="none"><path d="M500 250V55M488 250V55M485 67h45M485 113h45M485 159h45M485 205h45"/></g>
<g transform="translate(549 88)"><path d="M-15 0h30v159h-30z" fill="#edf0df"/><path d="M-15 100h30v22h-30z" fill="#df926b"/><path d="M-15 0 0-41 15 0z" fill="#f2eee0"/><path d="M-15 143-25 166h10l8-15M15 143l10 23H15l-8-15" fill="#d98e66"/><path d="M-8 161 0 204 8 161" fill="url(#flame)"/></g>
<g fill="#e8e4cf" font-family="system-ui,sans-serif"><text x="24" y="46" font-size="27" font-weight="700" letter-spacing="4">回航工廠</text><text x="25" y="70" font-size="11" letter-spacing="3">REUSABLE ROCKET FACTORY</text></g><path d="M23 86H302" stroke="#e09b70" stroke-width="2"/><text x="24" y="365" fill="#aecdc4" font-family="monospace" font-size="12" letter-spacing="2">MANUFACTURE  →  LAUNCH  →  RECOVER  →  REUSE</text>
</svg>
